<svg width="19" height="18" viewBox="0 0 19 18" fill="none" xmlns="http://www.w3.org/2000/svg">
<path d="M19 5.35347V16.7294C18.9993 16.8615 18.9596 16.9905 18.8858 17.1C18.8119 17.2096 18.7073 17.2949 18.5851 17.3451C18.5057 17.3825 18.4186 17.4008 18.3308 17.3986C18.2428 17.3991 18.1555 17.3822 18.0739 17.3489C17.9924 17.3156 17.9182 17.2665 17.8557 17.2045L15.3798 14.7219H5.61653C5.20464 14.718 4.80392 14.5875 4.46874 14.348C4.13355 14.1086 3.88013 13.7719 3.74284 13.3835L4.41202 12.7144H13.6466C14.534 12.7144 15.385 12.3619 16.0125 11.7344C16.64 11.1069 16.9925 10.2559 16.9925 9.36851V3.34595C17.5249 3.34595 18.0355 3.55745 18.412 3.93394C18.7885 4.31042 19 4.82104 19 5.35347Z" fill="#92899C"/>
<path d="M13.6466 11.3759C14.179 11.3759 14.6897 11.1644 15.0661 10.788C15.4426 10.4115 15.6541 9.90085 15.6541 9.36843V2.00752C15.6541 1.47509 15.4426 0.964472 15.0661 0.587989C14.6897 0.211506 14.179 0 13.6466 0H2.27067C1.73825 0 1.22763 0.211506 0.851142 0.587989C0.474659 0.964472 0.263153 1.47509 0.263153 2.00752V13.3835C0.263813 13.5156 0.303563 13.6445 0.377395 13.7541C0.451227 13.8637 0.555837 13.9489 0.67804 13.9991C0.757457 14.0366 0.844546 14.0549 0.932326 14.0526C1.02039 14.0531 1.1077 14.0363 1.18923 14.003C1.27076 13.9697 1.34491 13.9206 1.40744 13.8586L3.88338 11.3759H13.6466Z" fill="#D3D0D7"/>
</svg>
