<svg width="16" height="20" viewBox="0 0 16 20" fill="none" xmlns="http://www.w3.org/2000/svg">
<path d="M14 0H3C1.3457 0 0 1.3457 0 3C0 4.6543 1.3457 6 3 6H14C14.5527 6 15 5.55273 15 5V1C15 0.447266 14.5527 0 14 0Z" fill="#92899C"/>
<path d="M15 4H3C2.44824 4 2 3.55078 2 3C2 2.44922 2.44824 2 3 2H15C15.5527 2 16 1.55273 16 1C16 0.447266 15.5527 0 15 0H3C1.34668 0 0.0009766 1.34473 0 2.99805V3V17C0 18.6543 1.3457 20 3 20H15C15.5527 20 16 19.5527 16 19V5C16 4.44727 15.5527 4 15 4Z" fill="#D3D0D7"/>
<rect x="6.74419" y="9.61243" width="2.32558" height="6.20155" rx="1.16279" fill="white"/>
<rect x="6.74419" y="6.5116" width="2.32558" height="2.32558" rx="1.16279" fill="white"/>
</svg>
