<svg width="27" height="31" viewBox="0 0 27 31" fill="none" xmlns="http://www.w3.org/2000/svg">
<path d="M19.5001 8C15.3646 8 12 11.3645 12 15.5C12 19.6355 15.3646 23 19.5001 23C23.6357 23 27.0003 19.6355 27.0003 15.5C27.0003 11.3645 23.6357 8 19.5001 8Z" fill="#FFBFBF"/>
<path d="M19.6667 20C20.403 20 20.9999 19.3277 20.9999 18.4985L21 12.5024C21 11.4789 20.1084 10.7543 19.2452 11.078L17.912 11.5785C17.2135 11.8408 16.8359 12.6911 17.0688 13.4778C17.3793 14.5269 18.3246 14.5015 18.3335 14.5049V18.4985C18.3335 19.3277 18.9304 20 19.6667 20Z" fill="white"/>
<path fill-rule="evenodd" clip-rule="evenodd" d="M17.5096 5.9979V4.625C17.5096 4.2391 17.1893 3.9167 16.7946 3.9167H16.1872C15.7925 3.9167 15.4722 4.2391 15.4722 4.625C15.4722 5.5683 14.699 6.3333 13.7572 6.3333H7.6823C6.7406 6.3333 5.9674 5.5683 5.9674 4.625C5.9674 4.2391 5.6471 3.9167 5.2524 3.9167H4.6449C4.2502 3.9167 3.9299 4.2391 3.9299 4.625V26.375C3.9299 26.7609 4.2502 27.0833 4.6449 27.0833H16.7946C17.1893 27.0833 17.5096 26.7609 17.5096 26.375V25.026L18.0898 25.1202C18.6647 25.2136 19.2448 25.2708 19.8321 25.2708C20.0406 25.2708 20.2207 25.2707 20.4104 25.2596L20.9396 25.2286V26.375C20.9396 28.6475 19.0729 30.5 16.7946 30.5H4.6449C2.3667 30.5 0.5 28.6475 0.5 26.375V4.625C0.5 2.3525 2.3667 0.5 4.6449 0.5H16.7946C19.0729 0.5 20.9396 2.3525 20.9396 4.625V5.7714L20.4104 5.7404C20.2207 5.7293 20.0406 5.7292 19.8321 5.7292C19.2451 5.7292 18.6678 5.7864 18.0995 5.8902L17.5096 5.9979Z" fill="#FF5E5E"/>
</svg>
