<?xml version="1.0" encoding="UTF-8"?><svg id="Layer_1" xmlns="http://www.w3.org/2000/svg" viewBox="0 0 20 20"><defs><style>.cls-1{fill:#92899c;}.cls-2{fill:#d3d1d8;}</style></defs><path class="cls-2" d="m10,0c-2.21,0-4,1.79-4,4v4c0,2.21,1.79,4,4,4s4-1.79,4-4v-4c0-2.21-1.79-4-4-4Z"/><path class="cls-1" d="m17.91,9.14c.08-.55-.3-1.05-.85-1.13-.54-.07-1.05.3-1.13.85-.42,2.93-2.97,5.14-5.93,5.14s-5.51-2.21-5.93-5.14c-.08-.55-.59-.92-1.13-.85-.55.08-.93.59-.85,1.13.51,3.57,3.4,6.34,6.91,6.79v2.07h-2c-.55,0-1,.45-1,1s.45,1,1,1h6c.55,0,1-.45,1-1s-.45-1-1-1h-2v-2.07c3.51-.45,6.39-3.21,6.91-6.79Z"/></svg>